<?xml version="1.0" encoding="UTF-8"?>
<svg version="1.1" xmlns="http://www.w3.org/2000/svg" width="49" height="40">
<path d="M0 0 C1.09062744 -0.00362549 2.18125488 -0.00725098 3.30493164 -0.01098633 C9.26178565 0.19458172 9.26178565 0.19458172 11.75 0.9375 C12.74 2.5875 13.73 4.2375 14.75 5.9375 C7.16 6.2675 -0.43 6.5975 -8.25 6.9375 C-8.58 8.5875 -8.91 10.2375 -9.25 11.9375 C-8.86932373 11.44854248 -8.48864746 10.95958496 -8.09643555 10.45581055 C-5.56486322 8.374117 -3.95381973 8.59299492 -0.70703125 8.64453125 C0.90268555 8.6590332 0.90268555 8.6590332 2.54492188 8.67382812 C3.66447266 8.69896484 4.78402344 8.72410156 5.9375 8.75 C7.06865234 8.76353516 8.19980469 8.77707031 9.36523438 8.79101562 C12.16063317 8.82640042 14.95507892 8.87577052 17.75 8.9375 C18.74 10.9175 19.73 12.8975 20.75 14.9375 C19.396596 17.09993883 18.02017432 19.23975725 16.625 21.375 C16.05652344 22.29249023 16.05652344 22.29249023 15.4765625 23.22851562 C13.34626356 26.44171652 12.22091132 27.80780456 8.4453125 28.84765625 C7.55585937 28.87730469 6.66640625 28.90695313 5.75 28.9375 C6.37032476 32.40235707 6.37032476 32.40235707 7.75 35.9375 C10.24641128 37.45542644 10.24641128 37.45542644 12.75 37.9375 C12.75 38.9275 12.75 39.9175 12.75 40.9375 C9.78 40.9375 6.81 40.9375 3.75 40.9375 C3.55083984 39.90689453 3.55083984 39.90689453 3.34765625 38.85546875 C3.17105469 37.95441406 2.99445312 37.05335937 2.8125 36.125 C2.55146484 34.78501953 2.55146484 34.78501953 2.28515625 33.41796875 C1.77258847 30.82352829 1.77258847 30.82352829 0.75 27.9375 C-1.18833996 28.02465017 -3.1257429 28.13282964 -5.0625 28.25 C-6.68091797 28.33701172 -6.68091797 28.33701172 -8.33203125 28.42578125 C-11.58330104 28.99595038 -12.07182985 29.66198147 -14.25 31.9375 C-16.44140625 32.16015625 -16.44140625 32.16015625 -18.8125 32 C-21.13721105 31.80838561 -21.13721105 31.80838561 -23.25 31.9375 C-23.91 32.5975 -24.57 33.2575 -25.25 33.9375 C-26.24 33.9375 -27.23 33.9375 -28.25 33.9375 C-27.71930939 30.11652761 -26.75298434 27.87578597 -24.25 24.9375 C-19.795 25.9275 -19.795 25.9275 -15.25 26.9375 C-14.92 26.2775 -14.59 25.6175 -14.25 24.9375 C-14.69472656 24.34582031 -15.13945312 23.75414063 -15.59765625 23.14453125 C-16.44650391 21.95923828 -16.44650391 21.95923828 -17.3125 20.75 C-17.88097656 19.97269531 -18.44945312 19.19539063 -19.03515625 18.39453125 C-20.55564868 15.31932309 -20.28512122 14.16230074 -19.25 10.9375 C-18.99089844 10.05449219 -18.73179688 9.17148438 -18.46484375 8.26171875 C-14.41800442 -0.09184868 -8.46064637 0.00310847 0 0 Z " fill="#F73200" transform="translate(28.25,-0.9375)"/>
<path d="M0 0 C1.09062744 -0.00362549 2.18125488 -0.00725098 3.30493164 -0.01098633 C9.26178565 0.19458172 9.26178565 0.19458172 11.75 0.9375 C12.74 2.5875 13.73 4.2375 14.75 5.9375 C7.16 6.2675 -0.43 6.5975 -8.25 6.9375 C-8.58 8.5875 -8.91 10.2375 -9.25 11.9375 C-8.86932373 11.44854248 -8.48864746 10.95958496 -8.09643555 10.45581055 C-5.56486322 8.374117 -3.95381973 8.59299492 -0.70703125 8.64453125 C0.90268555 8.6590332 0.90268555 8.6590332 2.54492188 8.67382812 C3.66447266 8.69896484 4.78402344 8.72410156 5.9375 8.75 C7.06865234 8.76353516 8.19980469 8.77707031 9.36523438 8.79101562 C12.16063317 8.82640042 14.95507892 8.87577052 17.75 8.9375 C18.74 10.9175 19.73 12.8975 20.75 14.9375 C19.396596 17.09993883 18.02017432 19.23975725 16.625 21.375 C16.05652344 22.29249023 16.05652344 22.29249023 15.4765625 23.22851562 C13.34626356 26.44171652 12.22091132 27.80780456 8.4453125 28.84765625 C7.55585937 28.87730469 6.66640625 28.90695313 5.75 28.9375 C6.37032476 32.40235707 6.37032476 32.40235707 7.75 35.9375 C10.24641128 37.45542644 10.24641128 37.45542644 12.75 37.9375 C12.75 38.9275 12.75 39.9175 12.75 40.9375 C9.78 40.9375 6.81 40.9375 3.75 40.9375 C3.55083984 39.90689453 3.55083984 39.90689453 3.34765625 38.85546875 C3.17105469 37.95441406 2.99445312 37.05335937 2.8125 36.125 C2.55146484 34.78501953 2.55146484 34.78501953 2.28515625 33.41796875 C1.77258847 30.82352829 1.77258847 30.82352829 0.75 27.9375 C-1.18833996 28.02465017 -3.1257429 28.13282964 -5.0625 28.25 C-6.68091797 28.33701172 -6.68091797 28.33701172 -8.33203125 28.42578125 C-11.58330104 28.99595038 -12.07182985 29.66198147 -14.25 31.9375 C-16.44140625 32.16015625 -16.44140625 32.16015625 -18.8125 32 C-21.13721105 31.80838561 -21.13721105 31.80838561 -23.25 31.9375 C-23.91 32.5975 -24.57 33.2575 -25.25 33.9375 C-26.24 33.9375 -27.23 33.9375 -28.25 33.9375 C-27.71930939 30.11652761 -26.75298434 27.87578597 -24.25 24.9375 C-19.795 25.9275 -19.795 25.9275 -15.25 26.9375 C-14.92 26.2775 -14.59 25.6175 -14.25 24.9375 C-14.69472656 24.34582031 -15.13945312 23.75414063 -15.59765625 23.14453125 C-16.44650391 21.95923828 -16.44650391 21.95923828 -17.3125 20.75 C-17.88097656 19.97269531 -18.44945312 19.19539063 -19.03515625 18.39453125 C-20.55564868 15.31932309 -20.28512122 14.16230074 -19.25 10.9375 C-18.99089844 10.05449219 -18.73179688 9.17148438 -18.46484375 8.26171875 C-14.41800442 -0.09184868 -8.46064637 0.00310847 0 0 Z M-16.1875 6.625 C-18.27798753 10.55558239 -18.35979005 12.69721984 -17.25 16.9375 C-15.77122137 20.47740022 -14.03942009 23.28528666 -11.25 25.9375 C-7.40827686 27.3021961 -3.85953227 27.31950675 0.1875 27.1875 C1.73812134 27.16478027 1.73812134 27.16478027 3.32006836 27.14160156 C8.14358673 26.86798158 10.95748325 26.5304053 14.8828125 23.59375 C16.83905621 20.64750441 18.09420873 18.41562256 18.75 14.9375 C18.09 13.6175 17.43 12.2975 16.75 10.9375 C9.49 10.9375 2.23 10.9375 -5.25 10.9375 C-5.91 12.2575 -6.57 13.5775 -7.25 14.9375 C-8.57 13.9475 -9.89 12.9575 -11.25 11.9375 C-10.74396008 9.76875748 -10.25016187 7.93782373 -9.25 5.9375 C1.145 5.4425 1.145 5.4425 11.75 4.9375 C11.42 3.9475 11.09 2.9575 10.75 1.9375 C-4.24218073 -0.17656661 -4.24218073 -0.17656661 -16.1875 6.625 Z " fill="#0E0200" transform="translate(28.25,-0.9375)"/>
<path d="M0 0 C0.66 0 1.32 0 2 0 C3.2890625 1.4609375 3.2890625 1.4609375 4.625 3.375 C5.07101562 4.00148438 5.51703125 4.62796875 5.9765625 5.2734375 C7 7 7 7 7 9 C14.26 9 21.52 9 29 9 C29 9.33 29 9.66 29 10 C21.41 10 13.82 10 6 10 C5.67 11.32 5.34 12.64 5 14 C2.35096247 14.60549429 0.0387632 15.00090147 -2.6875 14.9375 C-5.19860219 14.74010576 -5.19860219 14.74010576 -7 17 C-7.99 17 -8.98 17 -10 17 C-9.46930939 13.17902761 -8.50298434 10.93828597 -6 8 C-1.545 8.99 -1.545 8.99 3 10 C3.33 9.34 3.66 8.68 4 8 C3.01 6.576875 3.01 6.576875 2 5.125 C0 2 0 2 0 0 Z " fill="#280800" transform="translate(10,16)"/>
<path d="M0 0 C0.99 0.33 1.98 0.66 3 1 C3.0825 1.78375 3.165 2.5675 3.25 3.375 C3.72806339 6.14749104 3.72806339 6.14749104 6.0625 7.3125 C6.701875 7.539375 7.34125 7.76625 8 8 C8 8.66 8 9.32 8 10 C5.69 10 3.38 10 1 10 C0.67 6.7 0.34 3.4 0 0 Z " fill="#7D1900" transform="translate(32,29)"/>
<path d="M0 0 C3.3 0.66 6.6 1.32 10 2 C6.3356845 4.442877 4.31446191 4.07844476 0 4 C-0.99 4.495 -0.99 4.495 -2 5 C-1.34 3.35 -0.68 1.7 0 0 Z " fill="#A52100" transform="translate(4,26)"/>
</svg>
